# Blender v2.79 (sub 0) OBJ File: ''
# www.blender.org
mtllib wall.mtl
o Cube_Cube.001
v -1.070193 0.900455 1.334765
v -1.070193 2.900455 1.334765
v -1.070193 0.900455 -0.665235
v -1.070193 2.900455 -0.665235
v 0.929807 0.900455 1.334765
v 0.929807 2.900455 1.334765
v 0.929807 0.900455 -0.665235
v 0.929807 2.900455 -0.665235
vt 0.468980 0.527770
vt 0.468980 1.000000
vt 0.937961 1.000000
vt 0.937961 0.527770
vt 0.531020 0.527770
vt 0.531020 1.000000
vt 1.000000 1.000000
vt 1.000000 0.527770
vt 0.468980 0.527770
vt 0.468980 1.000000
vt 0.000000 1.000000
vt 0.000000 0.527770
vt 0.531020 0.527770
vt 0.531020 1.000000
vt 0.062039 1.000000
vt 0.062039 0.527770
vt 0.531020 0.472230
vt 1.000000 0.472230
vt 1.000000 0.000000
vt 0.531020 0.000000
vt 0.531020 0.472230
vt 0.062039 0.472230
vt 0.062039 0.000000
vt 0.531020 0.000000
vn -1.0000 0.0000 0.0000
vn 0.0000 0.0000 -1.0000
vn 1.0000 0.0000 0.0000
vn 0.0000 0.0000 1.0000
vn 0.0000 -1.0000 0.0000
vn 0.0000 1.0000 0.0000
usemtl Material.001
s off
f 1/1/1 2/2/1 4/3/1 3/4/1
f 3/5/2 4/6/2 8/7/2 7/8/2
f 7/9/3 8/10/3 6/11/3 5/12/3
f 5/13/4 6/14/4 2/15/4 1/16/4
f 3/17/5 7/18/5 5/19/5 1/20/5
f 8/21/6 4/22/6 2/23/6 6/24/6
